<svg xmlns="http://www.w3.org/2000/svg" viewBox="0 0 10 10"><path fill="none" d="M0 0h10v10H0z"/><path d="M8.75 4.26H4.9v1.58h2.2a1.87 1.87 0 0 1-.82 1.23l1.32 1a4 4 0 0 0 1.22-3 5.57 5.57 0 0 0-.07-.81z" fill="#4285f4"/><path d="M4.9 7.46a2.43 2.43 0 0 1-2.28-1.68l-1.37 1a4.09 4.09 0 0 0 3.65 2.3 3.86 3.86 0 0 0 2.7-1l-1.32-1a2.47 2.47 0 0 1-1.38.38z" fill="#34a853"/><path d="M2.49 5a2.55 2.55 0 0 1 .13-.78l-1.37-1a4.11 4.11 0 0 0 0 3.66l1.37-1A2.55 2.55 0 0 1 2.49 5z" fill="#fbbc05"/><path d="M4.9 2.54a2.22 2.22 0 0 1 1.56.61L7.63 2A3.9 3.9 0 0 0 4.9.92a4.09 4.09 0 0 0-3.65 2.25l1.37 1A2.43 2.43 0 0 1 4.9 2.54z" fill="#ea4335"/></svg>